<?xml version="1.0" encoding="utf-8"?>
<!-- Generator: Adobe Illustrator 19.0.0, SVG Export Plug-In . SVG Version: 6.00 Build 0)  -->
<svg version="1.1" id="postcard" xmlns="http://www.w3.org/2000/svg" xmlns:xlink="http://www.w3.org/1999/xlink" x="0px" y="0px"
	 viewBox="0 0 2292 1554" style="enable-background:new 0 0 2292 1554;" xml:space="preserve">
<style type="text/css">
	.st0{fill:#2D407A;}
	.st1{font-family:'KiComicBoldItalic';}
	.st2{font-size:226.8927px;}
	.st3{fill:#DC8912;}
</style>
<g id="Layer_2">
</g>
<g>
	<g>
		<text transform="matrix(1 0 0 1 228.3166 1533.3651)" class="st0 st1 st2">EN MOVIMIENTO</text>
	</g>
	<polygon class="st3" points="1797.4,592.8 1830.1,659 1902.6,669.4 1850.3,721.2 1862.9,794.1 1797.9,759.8 1733.1,794.4 
		1745.3,721.5 1692.7,670.1 1765.1,659.2 	"/>
	<polygon class="st0" points="843.9,853.4 922.3,905.1 199.4,853.4 	"/>
	<polygon class="st0" points="679,775.1 737.8,813.8 106.7,775 678.8,775 	"/>
	<polygon class="st0" points="1020.5,954.6 1108.8,1012.8 471.5,954.6 	"/>
	<polygon class="st3" points="1690.5,295.8 1712.1,339.8 1760.3,346.7 1725.5,381.1 1733.9,429.5 1690.7,406.8 1647.7,429.7 
		1655.8,381.3 1620.9,347.2 1669,339.9 	"/>
	<polygon class="st3" points="1482.4,138.1 1497.5,107.2 1512.6,138 1546.3,142.8 1522,166.9 1527.9,200.8 1497.6,184.9 
		1467.6,200.9 1473.2,167.1 1448.8,143.1 	"/>
	<path class="st0" d="M1121.1,729.9c-55.9-45-149.5-118.4-201.7-147C853.7,547,713.6,478,667.6,451.8c-0.4-0.3-0.8-0.5-1.3-0.8
		c-46.9-27.2-169-126-163.9-137.8c12.7-29.4,71-119,89.1-139.3c1.8-2,6.7-6.3,13.6-11.9C605.1,425.1,1094.2,412.7,1121.1,729.9z"/>
	<path class="st0" d="M1550.4,731.9c-10.5-21.9-26.3-45.8-42.4-74c-0.5,0.2-0.7,0.7-1.2,0.9c0,0-140.5,23.7-130.5,18.9l111.8-54.6
		c-9.2-16.2-18.8-32.9-28.6-50.2c0,0-139.6,23.3-129.7,18.5l109.8-53.5c-9.2-16.2-18.4-32.5-27.6-48.8c0,0-136.8,22-126.9,17.1
		l107.1-52.3c-8.3-14.9-16.5-29.6-24.5-44l-115.4,32.8l90.1-78.5c-43.9-79.9-77.7-144.3-82.6-161.7c-15.7-55.2-14.9-71.9-41.2-64.6
		c-26.3,7.4-55.5,28.7-56.5,36.9c-0.5,4.2,0.6,11.8,3,21.5c-19.1,0.4-36.6,4.4-54.9,8.2c-26.8,5.6-93.8,7-120.3,6.8
		c-26.6-0.2-89.6,2.8-112.3-4.3c-22.7-7-46.9-34.6-47.3-49.7c-0.4-15.1,14.9-119.2,4-137.4C824.8,4,807.2-2.2,796.6,0.7
		c-6.1,1.7-10.7,7.1-23.9,18.3c35.8,50.3-1.3,132.7,29.2,178.5c80.9,121.1,230.7,30.3,373.1,31.1c4.1,11.8,8.9,24.5,14.5,37.6
		c-0.2,0-0.3,0-0.5,0l32.8,87l-54.9-88.8c-147-6.9-316.6,79.6-399.6-44.6C736.8,174.2,784,110,748.2,59.7
		c-9.5,8.1-20.5,16.7-32.8,22.9c-18.7,9.4-81.8,56.2-110.4,79.5c58.4,253.4,646.8,209.5,689.1,722c113,92.6,284.2,204.8,480.5,224.9
		c33.8,0,47.6-32.1,45.9-74.5c-57,24.8-278.4-54.1-363.2-193.2c146.2,176.2,313.2,163.1,354,156.7
		C1776.1,923.4,1648.1,882.4,1550.4,731.9z M1252.4,473.4c-1.9,1.1-4,2-6.1,2.7c-18.4,5.9-38.1-4.3-43.9-22.9
		c-5.9-18.6,4.3-38.4,22.7-44.3c2.2-0.7,4.4-1.1,6.6-1.4c-14.4,7.9-21.7,25.3-16.6,41.7C1220.2,465.5,1236.1,475.4,1252.4,473.4z"/>
	<path class="st0" d="M454.4,371.3c12.6-12.4,22.4-22,25-24.4c-3.1,13.1,117.3,110.3,163.9,137.4c0.4,0.3,0.8,0.5,1.3,0.8
		c46,26.2,186.1,95.2,251.8,131.2c65.7,36,196.8,142.8,236.2,175c33.8,27.6,267.2,307.4,619.1,350.9c22.7-0.5,35.3-6.5,42.2-13.8
		c-23.7,29.4-128.3,119.4-374.5,4.5c-150.4-73.8-172.2-92.9-235.3-141.6c-63.1-48.6-100.4-81.1-150.3-111
		c-49.9-29.8-116-74.3-162.6-95.6c-46.6-21.3-34.9,5.5-104.8-28.4c-69.9-33.8-192.1-105-238.2-135c-46.1-30-86.6-62-109.5-84.8
		c-22.8-22.7-45-57.8-45.2-79.1c0-0.1,0.2-0.3,0.2-0.4c46.5,31,114.1,70,185.7,90.1c0,0-100.4-65.4-154.1-126.4
		c3.6-3.8,7.4-7.6,11.3-11.6c46,32.2,121.7,78.7,202.2,101.3C618.8,510.3,504.1,435.5,454.4,371.3z"/>
	<path class="st3" d="M2114.7,1478.1c0-33.1,26.6-59.9,59.3-59.9c32.8,0,59.3,26.8,59.3,59.9c0,33.1-26.6,59.9-59.3,59.9
		C2141.2,1538,2114.7,1511.2,2114.7,1478.1z"/>
	<ellipse class="st3" cx="62.7" cy="1483.9" rx="59.3" ry="59.9"/>
</g>
</svg>
